<svg xmlns="http://www.w3.org/2000/svg" version="1.1" xmlns:xlink="http://www.w3.org/1999/xlink" width="512" height="512" x="0" y="0" viewBox="0 0 24 24" style="enable-background:new 0 0 512 512" xml:space="preserve">
  <g>
    <path d="M15 1.25H9C3.568 1.25 1.25 3.567 1.25 9v6c0 5.433 2.318 7.75 7.75 7.75h6c5.432 0 7.75-2.317 7.75-7.75V9c0-5.433-2.318-7.75-7.75-7.75zM8.25 21.232c-4.04-.178-5.5-1.878-5.5-6.232V9c0-4.354 1.46-6.054 5.5-6.232zm13-6.232c0 4.614-1.636 6.25-6.25 6.25H9.75V2.75H15c4.614 0 6.25 1.636 6.25 6.25z" fill="#ffffff"/>
  </g>
</svg>
