<svg xmlns="http://www.w3.org/2000/svg" version="1.1" xmlns:xlink="http://www.w3.org/1999/xlink" width="512" height="512" x="0" y="0" viewBox="0 0 68 58" style="enable-background:new 0 0 512 512" xml:space="preserve">
  <g>
    <path fill-rule="evenodd" d="M40 44c0-7.732 6.267-14 14-14 7.732 0 14 6.267 14 14 0 7.732-6.267 14-14 14-7.732 0-14-6.267-14-14zm4 0c0 5.524 4.477 10 10 10 5.524 0 10-4.477 10-10 0-5.524-4.477-10-10-10-5.524 0-10 4.477-10 10zm8-2v-2a2 2 0 0 1 4 0v2h2a2 2 0 0 1 0 4h-2v2a2 2 0 0 1-4 0v-2h-2a2 2 0 0 1 0-4zm-17 6a2 2 0 0 1 0 4H8.006C3.587 52 0 48.416 0 44.004V7.994A7.994 7.994 0 0 1 7.994 0h17.001c1.823 0 3.828 1.159 4.73 2.738l2.023 3.54c.188.329.866.722 1.243.722h21.002C58.413 7 62 10.584 62 14.995V25a2 2 0 0 1-4 0V14.995A4.005 4.005 0 0 0 53.993 11H32.991c-1.811 0-3.815-1.161-4.716-2.738l-2.023-3.54c-.189-.33-.867-.722-1.257-.722h-17A3.994 3.994 0 0 0 4 7.994v36.01A4.005 4.005 0 0 0 8.006 48z" fill="#ffffff" opacity="1" data-original="#000000"></path>
  </g>
</svg>
