<svg xmlns="http://www.w3.org/2000/svg" version="1.1" xmlns:xlink="http://www.w3.org/1999/xlink" width="512" height="512" x="0" y="0" viewBox="0 0 24 24" style="enable-background:new 0 0 512 512" xml:space="preserve" class=""><g><path d="M6 3c-.55 0-1 .45-1 1v16c0 .55.45 1 1 1s1-.45 1-1V4c0-.55-.45-1-1-1zM12.12 12.71c-.19-.19-.29-.44-.29-.71s.1-.52.29-.71l6.59-6.59a.996.996 0 1 0-1.41-1.41l-6.59 6.59c-.57.57-.88 1.32-.88 2.12s.31 1.55.88 2.12l6.59 6.59c.2.2.45.29.71.29s.51-.1.71-.29a.996.996 0 0 0 0-1.41l-6.59-6.59z" fill="#1e3a8a" opacity="1" data-original="#000000" class=""></path></g></svg>