<svg xmlns="http://www.w3.org/2000/svg" version="1.1" xmlns:xlink="http://www.w3.org/1999/xlink" width="512" height="512" x="0" y="0" viewBox="0 0 24 24" style="enable-background:new 0 0 512 512" xml:space="preserve">
  <g>
    <g fill="#ffffff">
      <path d="M21 20.25H11c-.41 0-.75-.34-.75-.75s.34-.75.75-.75h10c.41 0 .75.34.75.75s-.34.75-.75.75zM21 13.25H11c-.41 0-.75-.34-.75-.75s.34-.75.75-.75h10c.41 0 .75.34.75.75s-.34.75-.75.75zM21 6.25H11c-.41 0-.75-.34-.75-.75s.34-.75.75-.75h10c.41 0 .75.34.75.75s-.34.75-.75.75zM4 7.25c-.19 0-.38-.07-.53-.22l-1-1c-.29-.29-.29-.77 0-1.06s.77-.29 1.06 0l.47.47 2.47-2.47c.29-.29.77-.29 1.06 0s.29.77 0 1.06l-3 3c-.15.15-.34.22-.53.22zM4 14.25c-.19 0-.38-.07-.53-.22l-1-1c-.29-.29-.29-.77 0-1.06s.77-.29 1.06 0l.47.47 2.47-2.47c.29-.29.77-.29 1.06 0 .29.29.29.77 0 1.06l-3 3c-.15.15-.34.22-.53.22zM4 21.25c-.19 0-.38-.07-.53-.22l-1-1c-.29-.29-.29-.77 0-1.06s.77-.29 1.06 0l.47.47 2.47-2.47c.29-.29.77-.29 1.06 0s.29.77 0 1.06l-3 3c-.15.15-.34.22-.53.22z" fill="#ffffff" opacity="1" data-original="#000000"></path>
    </g>
  </g>
</svg>
