<svg xmlns="http://www.w3.org/2000/svg" version="1.1" xmlns:xlink="http://www.w3.org/1999/xlink" width="512" height="512" x="0" y="0" viewBox="0 0 25 25" style="enable-background:new 0 0 512 512" xml:space="preserve" class=""><g><g fill="#000" fill-rule="evenodd" clip-rule="evenodd"><path d="M8.215 12.587h.735c1.104 0 2.062.861 2.062 2s-.958 2-2.062 2h-1v1.75a.75.75 0 0 1-1.5 0v-4.035c0-.205 0-.429.026-.618.032-.227.114-.51.36-.744.24-.229.523-.3.742-.329a5.3 5.3 0 0 1 .637-.024zm-.265 2.5h1c.345 0 .562-.258.562-.5s-.217-.5-.562-.5h-.7c-.122 0-.217 0-.3.002v.248zm11.896-2.5H21.2a.75.75 0 1 1 0 1.5h-1.313c-.433 0-.685.001-.865.024a.86.86 0 0 0-.099.018.767.767 0 0 0-.011.065c-.023.162-.025.395-.025.81v.083h1.438a.75.75 0 1 1 0 1.5h-1.438v1.75a.75.75 0 0 1-1.5 0V14.96c0-.355 0-.696.04-.976.044-.317.152-.663.45-.946.291-.278.64-.374.955-.415.286-.036.637-.036 1.014-.036zm-6.544 0h.023c1.829 0 3.375 1.421 3.375 3.25s-1.546 3.25-3.375 3.25h-.023c-.144 0-.295 0-.425-.011a1.221 1.221 0 0 1-1.139-.987c-.044-.206-.04-.434-.039-.544v-3.416c-.001-.11-.005-.338.04-.544a1.221 1.221 0 0 1 1.138-.987c.13-.011.281-.011.425-.011zm-.103 1.5v3.5h.126c1.07 0 1.875-.818 1.875-1.75s-.805-1.75-1.875-1.75h-.126z" fill="#ffffff" opacity="1" data-original="#000000" class=""></path><path d="M7.194 21.491c.91.095 2.086.096 3.733.096H15.2a.75.75 0 1 1 0 1.5h-4.316c-1.594 0-2.85 0-3.845-.104-1.017-.106-1.853-.327-2.568-.83a4.884 4.884 0 0 1-1.01-.952c-.545-.685-.786-1.49-.9-2.463-.111-.944-.111-2.132-.111-3.626v-2.62c0-1.459 0-2.59.06-3.504.061-.926.186-1.68.461-2.374C3.81 4.5 5.574 2.848 7.79 2.071c1.379-.484 3.07-.484 6.036-.484h.362c1.636 0 2.655 0 3.495.294 1.35.474 2.431 1.482 2.946 2.782.175.44.25.908.286 1.453.035.533.035 1.189.035 2.013v2.208a.75.75 0 0 1-1.5 0V8.155c0-.856 0-1.462-.032-1.94-.031-.47-.09-.764-.183-1-.347-.874-1.088-1.58-2.048-1.918-.568-.2-1.307-.21-3.17-.21-3.21 0-4.624.01-5.73.399-1.828.641-3.251 1.991-3.921 3.681-.194.489-.303 1.068-.36 1.92-.056.858-.056 1.94-.056 3.432v2.545c0 1.553 0 2.652.1 3.499.098.829.282 1.323.584 1.704.198.249.434.47.7.659.418.294.963.472 1.86.565z" fill="#ffffff" opacity="1" data-original="#000000" class=""></path><path d="M3.2 13.087a.75.75 0 0 1-.75-.75 4.083 4.083 0 0 1 4.083-4.083c.186 0 .375.008.552.016l.068.003c.157.007.304.014.452.017.34.008.613-.009.832-.068a.917.917 0 0 0 .648-.648c.059-.219.075-.492.068-.832-.003-.147-.01-.295-.017-.451l-.003-.068a12.015 12.015 0 0 1-.017-.553A4.083 4.083 0 0 1 13.2 1.587a.75.75 0 0 1 0 1.5 2.583 2.583 0 0 0-2.584 2.583c0 .147.007.306.015.483l.003.066c.007.155.015.324.019.492.008.38-.004.823-.119 1.251a2.417 2.417 0 0 1-1.709 1.71c-.428.114-.872.126-1.252.118a18.803 18.803 0 0 1-.557-.022 10.623 10.623 0 0 0-.483-.014 2.583 2.583 0 0 0-2.583 2.583.75.75 0 0 1-.75.75z" fill="#ffffff" opacity="1" data-original="#000000" class=""></path></g></g></svg>