<svg xmlns="http://www.w3.org/2000/svg" version="1.1" xmlns:xlink="http://www.w3.org/1999/xlink" width="512" height="512" x="0" y="0" viewBox="0 0 512 512" style="enable-background:new 0 0 512 512" xml:space="preserve" class=""><g><path d="M282.208 19.67a16.105 16.105 0 0 0-13.152-3.392l-256 48A15.955 15.955 0 0 0 0 79.99v352c0 7.68 5.472 14.304 13.056 15.712l256 48a15.3 15.3 0 0 0 2.944.288c3.68 0 7.328-1.28 10.208-3.68A16.006 16.006 0 0 0 288 479.99v-448c0-4.768-2.112-9.28-5.792-12.32zM256 460.694 32 418.71V93.27l224-41.984v409.408z" fill="#ffffff" opacity="1" data-original="#000000" class=""></path><path d="M496 79.99H272c-8.832 0-16 7.168-16 16s7.168 16 16 16h208v288H272c-8.832 0-16 7.168-16 16s7.168 16 16 16h224c8.832 0 16-7.168 16-16v-320c0-8.832-7.168-16-16-16z" fill="#ffffff" opacity="1" data-original="#000000" class=""></path><path d="M432 335.99H272c-8.832 0-16 7.168-16 16s7.168 16 16 16h160c8.832 0 16-7.168 16-16s-7.168-16-16-16zM112 175.99c-8.832 0-16 7.168-16 16v160c0 8.832 7.168 16 16 16s16-7.168 16-16v-160c0-8.832-7.168-16-16-16z" fill="#ffffff" opacity="1" data-original="#000000" class=""></path><path d="M160 175.99h-48c-8.832 0-16 7.168-16 16s7.168 16 16 16h48c17.632 0 32 14.368 32 32s-14.368 32-32 32h-48c-8.832 0-16 7.168-16 16s7.168 16 16 16h48c35.296 0 64-28.704 64-64s-28.704-64-64-64zM368 143.99c-44.128 0-80 35.904-80 80s35.872 80 80 80 80-35.904 80-80-35.872-80-80-80zm0 128c-26.464 0-48-21.536-48-48s21.536-48 48-48 48 21.536 48 48-21.536 48-48 48z" fill="#ffffff" opacity="1" data-original="#000000" class=""></path><path d="M432 207.99h-48v-48c0-8.832-7.168-16-16-16s-16 7.168-16 16v64c0 8.832 7.168 16 16 16h64c8.832 0 16-7.168 16-16s-7.168-16-16-16z" fill="#ffffff" opacity="1" data-original="#000000" class=""></path></g></svg>