<svg xmlns="http://www.w3.org/2000/svg" version="1.1" xmlns:xlink="http://www.w3.org/1999/xlink" width="512" height="512" x="0" y="0" viewBox="0 0 512 512" style="enable-background:new 0 0 512 512" xml:space="preserve" class=""><g><path d="M282.208 19.67a16.105 16.105 0 0 0-13.152-3.392l-256 48A15.955 15.955 0 0 0 0 79.99v352c0 7.68 5.472 14.304 13.056 15.712l256 48a15.3 15.3 0 0 0 2.944.288c3.68 0 7.328-1.28 10.208-3.68A16.006 16.006 0 0 0 288 479.99v-448c0-4.768-2.112-9.28-5.792-12.32zM256 460.694 32 418.71V93.27l224-41.984v409.408z" fill="#ffffff" opacity="1" data-original="#000000"></path><path d="M496 79.99H272c-8.832 0-16 7.168-16 16s7.168 16 16 16h208v288H272c-8.832 0-16 7.168-16 16s7.168 16 16 16h224c8.832 0 16-7.168 16-16v-320c0-8.832-7.168-16-16-16z" fill="#ffffff" opacity="1" data-original="#000000"></path><path d="M432 143.99H272c-8.832 0-16 7.168-16 16s7.168 16 16 16h160c8.832 0 16-7.168 16-16s-7.168-16-16-16zM432 207.99H272c-8.832 0-16 7.168-16 16s7.168 16 16 16h160c8.832 0 16-7.168 16-16s-7.168-16-16-16zM432 271.99H272c-8.832 0-16 7.168-16 16s7.168 16 16 16h160c8.832 0 16-7.168 16-16s-7.168-16-16-16zM432 335.99H272c-8.832 0-16 7.168-16 16s7.168 16 16 16h160c8.832 0 16-7.168 16-16s-7.168-16-16-16zM209.76 176.086c-8.48-.864-16.704 5.344-17.664 14.112l-8.608 77.504-24.512-65.344c-4.704-12.48-25.312-12.48-29.984 0l-26.016 69.408-7.136-50.048c-1.248-8.768-9.44-14.976-18.112-13.568-8.736 1.248-14.816 9.344-13.568 18.08l16 112c1.024 7.264 6.848 12.896 14.112 13.664 7.424.736 14.144-3.424 16.704-10.272L144 253.558l33.024 88.064A16.044 16.044 0 0 0 192 351.99c.672 0 1.312-.032 1.984-.16 7.328-.896 13.088-6.752 13.92-14.08l16-144c.96-8.768-5.344-16.672-14.144-17.664z" fill="#ffffff" opacity="1" data-original="#000000"></path></g></svg>