<svg xmlns="http://www.w3.org/2000/svg" version="1.1" xmlns:xlink="http://www.w3.org/1999/xlink" width="512" height="512" x="0" y="0" viewBox="0 0 512 512" style="enable-background:new 0 0 512 512" xml:space="preserve" class="hovered-paths"><g><path d="M282.208 19.67a16.105 16.105 0 0 0-13.152-3.392l-256 48A15.955 15.955 0 0 0 0 79.99v352c0 7.68 5.472 14.304 13.056 15.712l256 48a15.3 15.3 0 0 0 2.944.288c3.68 0 7.328-1.28 10.208-3.68A16.006 16.006 0 0 0 288 479.99v-448c0-4.768-2.112-9.28-5.792-12.32zM256 460.694 32 418.71V93.27l224-41.984v409.408z" fill="#ffffff" opacity="1" data-original="#000000" class="hovered-path"></path><path d="M496 79.99H272c-8.832 0-16 7.168-16 16s7.168 16 16 16h208v288H272c-8.832 0-16 7.168-16 16s7.168 16 16 16h224c8.832 0 16-7.168 16-16v-320c0-8.832-7.168-16-16-16z" fill="#ffffff" opacity="1" data-original="#000000" class="hovered-path"></path><path d="M336 143.99h-64c-8.832 0-16 7.168-16 16s7.168 16 16 16h64c8.832 0 16-7.168 16-16s-7.168-16-16-16zM336 207.99h-64c-8.832 0-16 7.168-16 16s7.168 16 16 16h64c8.832 0 16-7.168 16-16s-7.168-16-16-16zM336 271.99h-64c-8.832 0-16 7.168-16 16s7.168 16 16 16h64c8.832 0 16-7.168 16-16s-7.168-16-16-16zM336 335.99h-64c-8.832 0-16 7.168-16 16s7.168 16 16 16h64c8.832 0 16-7.168 16-16s-7.168-16-16-16zM432 143.99h-32c-8.832 0-16 7.168-16 16s7.168 16 16 16h32c8.832 0 16-7.168 16-16s-7.168-16-16-16zM432 207.99h-32c-8.832 0-16 7.168-16 16s7.168 16 16 16h32c8.832 0 16-7.168 16-16s-7.168-16-16-16zM432 271.99h-32c-8.832 0-16 7.168-16 16s7.168 16 16 16h32c8.832 0 16-7.168 16-16s-7.168-16-16-16zM432 335.99h-32c-8.832 0-16 7.168-16 16s7.168 16 16 16h32c8.832 0 16-7.168 16-16s-7.168-16-16-16zM220.064 309.462l-112-128c-5.888-6.688-15.968-7.328-22.592-1.504-6.656 5.824-7.328 15.936-1.504 22.56l112 128A15.951 15.951 0 0 0 208 335.99c3.744 0 7.488-1.312 10.56-3.968 6.656-5.824 7.328-15.904 1.504-22.56z" fill="#ffffff" opacity="1" data-original="#000000" class="hovered-path"></path><path d="M217.824 163.382c-6.976-5.472-17.024-4.16-22.464 2.784l-112 144c-5.408 6.976-4.16 17.056 2.816 22.464A16.015 16.015 0 0 0 96 335.99c4.736 0 9.472-2.112 12.608-6.144l112-144c5.44-7.008 4.192-17.056-2.784-22.464z" fill="#ffffff" opacity="1" data-original="#000000" class="hovered-path"></path></g></svg>