<svg xmlns="http://www.w3.org/2000/svg" version="1.1" xmlns:xlink="http://www.w3.org/1999/xlink" width="512" height="512" x="0" y="0" viewBox="0 0 91 91" style="enable-background:new 0 0 512 512" xml:space="preserve" class=""><g><path d="M87.17 68.33 67 48.13a1.8 1.8 0 0 0-2.48 0l-4 4-4.71-4.7L67.18 36c4.75-.25 11.08-.23 11.36-.27 1.18-.18 3.44-2 11.09-12.29a1.77 1.77 0 0 0 .34-1v-4.63a1.76 1.76 0 0 0-.88-1.52 1.73 1.73 0 0 0-1.76 0l-8.09 4.8c-.69.22-3.72.93-6.31-2.76-2.8-4-1.55-5.92.22-7.43a89.29 89.29 0 0 1 8.22-5.22 1.78 1.78 0 0 0 .88-1.45 1.75 1.75 0 0 0-.76-1.51c-.25-.17-6.34-4.24-16.8-.19-8.08 3.12-9.21 7.23-9.31 7.69l-1.72 12.15-11.44 11.45L32 23.57a9.61 9.61 0 0 0 .68-3.5 9.42 9.42 0 0 0-2.78-6.7 1.49 1.49 0 0 0-.28-.23L12.31 1.88a1.74 1.74 0 0 0-2.19.22L2.93 9.29a1.74 1.74 0 0 0-.22 2.19L14 28.76a2 2 0 0 0 .23.28 9.37 9.37 0 0 0 6.69 2.77 9.45 9.45 0 0 0 3.51-.67l10.22 10.25-12.52 12.52-12 1.7H10c-.46.11-4.56 1.23-7.69 9.32-4 10.46 0 16.54.2 16.8A1.77 1.77 0 0 0 4 82.5a1.73 1.73 0 0 0 1.44-.87 90.06 90.06 0 0 1 5.22-8.22c1.51-1.77 3.46-3 7.44-.23 3.7 2.61 3 5.66 2.76 6.31l-4.8 8.09a1.74 1.74 0 0 0 1.5 2.64h4.63a1.69 1.69 0 0 0 1-.35c10.5-7.76 12.17-10 12.31-11.13 0-.24 0-6.57.25-11.31L48.24 55 53 59.69l-4 4a1.76 1.76 0 0 0 0 2.48l20.2 20.19a12.1 12.1 0 0 0 17.1 0l.91-.91a12.07 12.07 0 0 0 0-17.1zM56.55 24.44a1.79 1.79 0 0 0 .49-1L58.81 11c.11-.28 1.28-2.89 7.14-5.16a18.83 18.83 0 0 1 10.53-1.32 54.17 54.17 0 0 0-5.61 3.73c-4.81 4.12-3.09 8.85-.81 12.1 3.57 5.07 8.49 4.82 10.58 4 .08 0 5.83-3.43 5.83-3.43v1c-3.28 4.4-7.23 9.29-8.57 10.37-2.3-.12-8.7.19-11.57.35a1.74 1.74 0 0 0-1.15.51L53.34 44.93l-3-3 11.42-11.47A1.75 1.75 0 1 0 59.29 28L47.84 39.44l-3.14-3.15zm-35.66 3.87a5.9 5.9 0 0 1-4.09-1.62L6.41 10.76l5.18-5.18L27.52 16a6 6 0 0 1-.12 8.32l-2.29 2.29a5.93 5.93 0 0 1-4.22 1.74zm11.94 37.13a1.7 1.7 0 0 0-.51 1.14c-.16 2.88-.47 9.27-.34 11.57-1.08 1.34-6 5.3-10.38 8.58h-1l3.46-5.83c.85-2.1 1.11-7-4-10.58-3.25-2.28-8-4-12.11.81a54.7 54.7 0 0 0-3.73 5.61 18.76 18.76 0 0 1 1.33-10.53c2.28-5.91 4.9-7 5.16-7.15l12.49-1.77a1.73 1.73 0 0 0 1-.49l12.92-12.94L40.27 47 27.64 59.64a1.73 1.73 0 0 0 0 2.47 1.73 1.73 0 0 0 2.47 0l12.63-12.63 3 3zM27.41 29.2l.18-.16 2.28-2.28.16-.18 28 28-2.62 2.62zM84.7 83l-.91.92a8.62 8.62 0 0 1-12.16 0l-18.95-19 4-4 5.1-5.09 4-4 19 19A8.58 8.58 0 0 1 84.7 83z" fill="#000000" opacity="1" data-original="#000000" class=""></path><path d="M64.68 61.38a1.73 1.73 0 0 0-2.47 0 1.75 1.75 0 0 0 0 2.47l15 15a1.75 1.75 0 1 0 2.48-2.48z" fill="#000000" opacity="1" data-original="#000000" class=""></path></g></svg>