<svg xmlns="http://www.w3.org/2000/svg" version="1.1" xmlns:xlink="http://www.w3.org/1999/xlink" width="512" height="512" x="0" y="0" viewBox="0 0 24 24" style="enable-background:new 0 0 512 512" xml:space="preserve" class=""><g><path d="M21 4a1 1 0 0 0-1 1v1.004A10.02 10.02 0 0 0 12 2a9.946 9.946 0 0 0-9.753 7.778 1 1 0 0 0 1.951.444A7.955 7.955 0 0 1 12 4c2.885 0 5.502 1.565 6.914 4H17a1 1 0 1 0 0 2h4a1 1 0 0 0 1-1V5a1 1 0 0 0-1-1zM3 20a1 1 0 0 0 1-1v-1.025A9.924 9.924 0 0 0 12 22a9.946 9.946 0 0 0 9.753-7.778 1 1 0 0 0-1.951-.444A7.955 7.955 0 0 1 12 20c-2.886 0-5.478-1.528-6.908-4H7a1 1 0 1 0 0-2H3a1 1 0 0 0-1 1v4a1 1 0 0 0 1 1z" fill="#ffffff" opacity="1" data-original="#000000" class=""></path></g></svg>