<svg xmlns="http://www.w3.org/2000/svg" version="1.1" xmlns:xlink="http://www.w3.org/1999/xlink" width="512" height="512" x="0" y="0" viewBox="0 0 60 60" style="enable-background:new 0 0 512 512" xml:space="preserve" class=""><g><rect width="38" height="8" x="21" y="1" rx="3" fill="#000000" opacity="1" data-original="#000000"></rect><rect width="30" height="8" x="21" y="15" rx="3" fill="#000000" opacity="1" data-original="#000000"></rect><rect width="38" height="8" x="21" y="37" rx="3" fill="#000000" opacity="1" data-original="#000000"></rect><rect width="30" height="8" x="21" y="51" rx="3" fill="#000000" opacity="1" data-original="#000000"></rect><path d="m9.705 58.707 7-9A1 1 0 0 0 16 48h-3v-9a2 2 0 0 0-2-2H7a2 2 0 0 0-2 2v9H2a1 1 0 0 0-.7 1.707l7 9a1 1 0 0 0 1.405 0zM7 23h4a2 2 0 0 0 2-2v-9h3a1 1 0 0 0 .707-1.707l-7-9a1 1 0 0 0-1.414 0l-7 9A1 1 0 0 0 2 12h3v9a2 2 0 0 0 2 2z" fill="#000000" opacity="1" data-original="#000000"></path></g></svg>