<svg xmlns="http://www.w3.org/2000/svg" version="1.1" xmlns:xlink="http://www.w3.org/1999/xlink" width="512" height="512" x="0" y="0" viewBox="0 0 24 24" style="enable-background:new 0 0 512 512" xml:space="preserve" class=""><g><g fill="#000"><path d="M11.1 22.75H6.9c-3.91 0-5.65-1.74-5.65-5.65v-4.2c0-3.91 1.74-5.65 5.65-5.65h4.2c3.91 0 5.65 1.74 5.65 5.65v4.2c0 3.91-1.74 5.65-5.65 5.65zm-4.2-14c-3.1 0-4.15 1.05-4.15 4.15v4.2c0 3.1 1.05 4.15 4.15 4.15h4.2c3.1 0 4.15-1.05 4.15-4.15v-4.2c0-3.1-1.05-4.15-4.15-4.15z" fill="#ffffff" opacity="1" data-original="#000000" class=""></path><path d="M17.1 16.75H16c-.41 0-.75-.34-.75-.75v-3.1c0-3.1-1.05-4.15-4.15-4.15H8c-.41 0-.75-.34-.75-.75V6.9c0-3.91 1.74-5.65 5.65-5.65h4.2c3.91 0 5.65 1.74 5.65 5.65v4.2c0 3.91-1.74 5.65-5.65 5.65zm-.35-1.5h.35c3.1 0 4.15-1.05 4.15-4.15V6.9c0-3.1-1.05-4.15-4.15-4.15h-4.2c-3.1 0-4.15 1.05-4.15 4.15v.35h2.35c3.91 0 5.65 1.74 5.65 5.65z" fill="#ffffff" opacity="1" data-original="#000000" class=""></path></g></g></svg>