<svg xmlns="http://www.w3.org/2000/svg" version="1.1" xmlns:xlink="http://www.w3.org/1999/xlink" width="512" height="512" x="0" y="0" viewBox="0 0 24 24" style="enable-background:new 0 0 512 512" xml:space="preserve" class=""><g transform="matrix(6.123233995736766e-17,1,-1,6.123233995736766e-17,24.501249313354492,0.5012502670288086)"><path fill="#ffffff" d="M12 16.8c-.7 0-1.4-.27-1.93-.8L3.55 9.48c-.29-.29-.29-.77 0-1.06s.77-.29 1.06 0l6.52 6.52c.48.48 1.26.48 1.74 0l6.52-6.52c.29-.29.77-.29 1.06 0s.29.77 0 1.06L13.93 16c-.53.53-1.23.8-1.93.8z" opacity="1" data-original="#000000" class=""></path></g></svg>