<svg xmlns="http://www.w3.org/2000/svg" version="1.1" xmlns:xlink="http://www.w3.org/1999/xlink" width="512" height="512" x="0" y="0" viewBox="0 0 24 24" style="enable-background:new 0 0 512 512" xml:space="preserve" class=""><g><g fill="#000"><path d="M7.85 22.75h-2.7c-2.66 0-3.9-1.24-3.9-3.9v-2.7c0-2.66 1.24-3.9 3.9-3.9h2.7c2.66 0 3.9 1.24 3.9 3.9v2.7c0 2.66-1.24 3.9-3.9 3.9zm-2.7-9c-1.84 0-2.4.56-2.4 2.4v2.7c0 1.84.56 2.4 2.4 2.4h2.7c1.84 0 2.4-.56 2.4-2.4v-2.7c0-1.84-.56-2.4-2.4-2.4zM15 22.75a.745.745 0 0 1-.64-1.13l1.05-1.75c.21-.36.67-.47 1.03-.26s.47.67.26 1.03l-.27.45c2.76-.65 4.83-3.13 4.83-6.09 0-.41.34-.75.75-.75s.75.34.75.75c-.01 4.27-3.49 7.75-7.76 7.75zM2 9.75c-.41 0-.75-.34-.75-.75 0-4.27 3.48-7.75 7.75-7.75a.745.745 0 0 1 .64 1.13L8.59 4.14c-.21.35-.67.47-1.03.25a.746.746 0 0 1-.25-1.03l.27-.45A6.261 6.261 0 0 0 2.75 9c0 .41-.34.75-.75.75zM17.5 11.75c-2.89 0-5.25-2.36-5.25-5.25s2.36-5.25 5.25-5.25 5.25 2.36 5.25 5.25-2.36 5.25-5.25 5.25zm0-9c-2.07 0-3.75 1.68-3.75 3.75s1.68 3.75 3.75 3.75 3.75-1.68 3.75-3.75-1.68-3.75-3.75-3.75z" fill="#000000" opacity="1" data-original="#000000" class=""></path></g></g></svg>